# xmcd
#
# Track frame offsets: 
#        150
#        6446
#        19822
#        33772
#        41608
#        61696
#
# Disc length: 1014 seconds
#
# Revision: 0
# Processed by: cddbd v1.5.2PL0 Copyright (c) Steve Scherf et al.
# Submitted via: ExactAudioCopy v1.0b3
#
DISCID=3e03f406
DTITLE=Brigitte Bordeaux - The Others (Animus Quattuor 1)
DYEAR=2011
DGENRE=Avant-Rock
TTITLE0=The Others
TTITLE1=Inland Blue Messiah
TTITLE2=Horror Show
TTITLE3=Rio Lover
TTITLE4=Common Dandelion
TTITLE5=Jakuzzi Jerusalem
EXTD=
EXTT0=
EXTT1=
EXTT2=
EXTT3=
EXTT4=
EXTT5=
PLAYORDER=
